<svg xmlns="http://www.w3.org/2000/svg" width="223.83" height="35" viewBox="0 0 223.83 35"><rect class="svg__rect" x="0" y="0" width="113.56" height="35" fill="#CE422B"/><rect class="svg__rect" x="111.56" y="0" width="112.27000000000001" height="35" fill="#1E2020"/><path class="svg__text" d="M15.70 22L14.22 22L14.22 13.47L17.22 13.47Q18.69 13.47 19.50 14.13Q20.30 14.79 20.30 16.05L20.30 16.05Q20.30 16.90 19.89 17.48Q19.47 18.06 18.73 18.37L18.73 18.37L20.65 21.92L20.65 22L19.06 22L17.35 18.71L15.70 18.71L15.70 22ZM15.70 14.66L15.70 17.52L17.22 17.52Q17.97 17.52 18.39 17.15Q18.82 16.77 18.82 16.11L18.82 16.11Q18.82 15.43 18.43 15.05Q18.04 14.68 17.26 14.66L17.26 14.66L15.70 14.66ZM24.56 19.16L24.56 19.16L24.56 13.47L26.04 13.47L26.04 19.18Q26.04 20.03 26.47 20.48Q26.90 20.93 27.75 20.93L27.75 20.93Q29.46 20.93 29.46 19.13L29.46 19.13L29.46 13.47L30.93 13.47L30.93 19.17Q30.93 20.53 30.06 21.32Q29.19 22.12 27.75 22.12L27.75 22.12Q26.28 22.12 25.42 21.33Q24.56 20.55 24.56 19.16ZM35.07 19.42L35.07 19.42L36.55 19.42Q36.55 20.15 37.03 20.55Q37.51 20.95 38.41 20.95L38.41 20.95Q39.18 20.95 39.57 20.63Q39.96 20.32 39.96 19.80L39.96 19.80Q39.96 19.24 39.57 18.94Q39.17 18.63 38.14 18.32Q37.11 18.01 36.50 17.63L36.50 17.63Q35.33 16.90 35.33 15.72L35.33 15.72Q35.33 14.69 36.18 14.02Q37.02 13.35 38.36 13.35L38.36 13.35Q39.25 13.35 39.95 13.68Q40.64 14.01 41.04 14.61Q41.44 15.22 41.44 15.96L41.44 15.96L39.96 15.96Q39.96 15.29 39.54 14.91Q39.13 14.54 38.35 14.54L38.35 14.54Q37.62 14.54 37.22 14.85Q36.82 15.16 36.82 15.71L36.82 15.71Q36.82 16.18 37.25 16.50Q37.68 16.81 38.68 17.10Q39.68 17.40 40.28 17.78Q40.88 18.16 41.16 18.65Q41.45 19.13 41.45 19.79L41.45 19.79Q41.45 20.86 40.63 21.49Q39.81 22.12 38.41 22.12L38.41 22.12Q37.48 22.12 36.71 21.77Q35.93 21.43 35.50 20.83Q35.07 20.22 35.07 19.42ZM47.42 14.66L44.78 14.66L44.78 13.47L51.55 13.47L51.55 14.66L48.89 14.66L48.89 22L47.42 22L47.42 14.66ZM61.01 18.19L61.01 18.19L61.01 17.39Q61.01 16.19 61.44 15.27Q61.87 14.35 62.67 13.85Q63.47 13.35 64.51 13.35L64.51 13.35Q65.93 13.35 66.79 14.12Q67.65 14.89 67.79 16.29L67.79 16.29L66.31 16.29Q66.21 15.37 65.78 14.96Q65.35 14.55 64.51 14.55L64.51 14.55Q63.55 14.55 63.03 15.26Q62.51 15.96 62.50 17.33L62.50 17.33L62.50 18.09Q62.50 19.47 62.99 20.20Q63.49 20.92 64.44 20.92L64.44 20.92Q65.32 20.92 65.76 20.53Q66.20 20.14 66.31 19.22L66.31 19.22L67.79 19.22Q67.66 20.59 66.78 21.35Q65.90 22.12 64.44 22.12L64.44 22.12Q63.42 22.12 62.65 21.63Q61.87 21.15 61.45 20.26Q61.03 19.37 61.01 18.19ZM71.83 18.00L71.83 18.00L71.83 17.52Q71.83 16.28 72.27 15.32Q72.72 14.37 73.52 13.86Q74.33 13.35 75.37 13.35Q76.41 13.35 77.22 13.85Q78.03 14.35 78.47 15.29Q78.90 16.23 78.91 17.48L78.91 17.48L78.91 17.96Q78.91 19.21 78.48 20.16Q78.04 21.10 77.24 21.61Q76.43 22.12 75.38 22.12L75.38 22.12Q74.35 22.12 73.53 21.61Q72.72 21.10 72.28 20.17Q71.84 19.23 71.83 18.00ZM73.31 17.46L73.31 17.96Q73.31 19.36 73.86 20.13Q74.41 20.90 75.38 20.90L75.38 20.90Q76.37 20.90 76.90 20.15Q77.43 19.40 77.43 17.96L77.43 17.96L77.43 17.51Q77.43 16.09 76.89 15.34Q76.36 14.58 75.37 14.58L75.37 14.58Q74.41 14.58 73.87 15.33Q73.33 16.09 73.31 17.46L73.31 17.46ZM85.83 22L83.38 22L83.38 13.47L85.89 13.47Q87.03 13.47 87.90 13.97Q88.78 14.48 89.26 15.40Q89.74 16.33 89.74 17.52L89.74 17.52L89.74 17.95Q89.74 19.16 89.26 20.08Q88.77 21.00 87.88 21.50Q86.98 22 85.83 22L85.83 22ZM84.86 14.66L84.86 20.82L85.82 20.82Q86.99 20.82 87.61 20.09Q88.24 19.36 88.25 17.99L88.25 17.99L88.25 17.52Q88.25 16.13 87.65 15.40Q87.04 14.66 85.89 14.66L85.89 14.66L84.86 14.66ZM99.78 22L94.20 22L94.20 13.47L99.74 13.47L99.74 14.66L95.69 14.66L95.69 17.02L99.19 17.02L99.19 18.19L95.69 18.19L95.69 20.82L99.78 20.82L99.78 22Z" fill="#1E2020"/><path class="svg__text" d="M128.13 22L125.75 22L125.75 13.60L129.59 13.60Q130.73 13.60 131.57 13.98Q132.41 14.35 132.87 15.06Q133.32 15.76 133.32 16.71L133.32 16.71Q133.32 17.62 132.90 18.30Q132.47 18.98 131.68 19.36L131.68 19.36L133.49 22L130.95 22L129.42 19.77L128.13 19.77L128.13 22ZM128.13 15.47L128.13 17.93L129.45 17.93Q130.18 17.93 130.55 17.61Q130.92 17.29 130.92 16.71L130.92 16.71Q130.92 16.12 130.55 15.79Q130.18 15.47 129.45 15.47L129.45 15.47L128.13 15.47ZM139.53 22L137.10 22L140.81 13.60L143.16 13.60L146.87 22L144.40 22L143.74 20.37L140.19 20.37L139.53 22ZM141.97 15.93L140.88 18.61L143.04 18.61L141.97 15.93ZM153.40 22L151.03 22L151.03 13.60L153.40 13.60L153.40 22ZM162.55 22L158.58 22L158.58 13.60L162.55 13.60Q163.93 13.60 165.00 14.12Q166.07 14.63 166.66 15.58Q167.24 16.53 167.24 17.80L167.24 17.80Q167.24 19.07 166.66 20.02Q166.07 20.97 165.00 21.48Q163.93 22 162.55 22L162.55 22ZM160.96 15.50L160.96 20.10L162.46 20.10Q163.53 20.10 164.19 19.49Q164.84 18.88 164.84 17.80L164.84 17.80Q164.84 16.72 164.19 16.11Q163.53 15.50 162.46 15.50L162.46 15.50L160.96 15.50ZM183.49 22L178.95 22L178.95 13.60L183.25 13.60Q184.85 13.60 185.69 14.19Q186.53 14.79 186.53 15.79L186.53 15.79Q186.53 16.39 186.24 16.87Q185.94 17.34 185.40 17.62L185.40 17.62Q186.12 17.87 186.53 18.41Q186.94 18.94 186.94 19.70L186.94 19.70Q186.94 20.80 186.05 21.40Q185.16 22 183.49 22L183.49 22ZM181.30 18.58L181.30 20.28L183.29 20.28Q184.54 20.28 184.54 19.43L184.54 19.43Q184.54 18.58 183.29 18.58L183.29 18.58L181.30 18.58ZM181.30 15.31L181.30 16.94L182.93 16.94Q184.13 16.94 184.13 16.12L184.13 16.12Q184.13 15.31 182.93 15.31L182.93 15.31L181.30 15.31ZM191.23 17.80L191.23 17.80Q191.23 16.55 191.83 15.55Q192.43 14.56 193.50 14.00Q194.56 13.43 195.89 13.43L195.89 13.43Q197.22 13.43 198.28 14.00Q199.35 14.56 199.95 15.55Q200.56 16.55 200.56 17.80L200.56 17.80Q200.56 19.05 199.95 20.04Q199.35 21.04 198.29 21.60Q197.23 22.17 195.89 22.17L195.89 22.17Q194.56 22.17 193.50 21.60Q192.43 21.04 191.83 20.04Q191.23 19.05 191.23 17.80ZM193.62 17.80L193.62 17.80Q193.62 18.51 193.92 19.05Q194.23 19.60 194.74 19.90Q195.26 20.20 195.89 20.20L195.89 20.20Q196.53 20.20 197.04 19.90Q197.56 19.60 197.86 19.05Q198.16 18.51 198.16 17.80L198.16 17.80Q198.16 17.09 197.86 16.54Q197.56 16 197.04 15.70Q196.53 15.40 195.89 15.40L195.89 15.40Q195.25 15.40 194.74 15.70Q194.23 16 193.92 16.54Q193.62 17.09 193.62 17.80ZM207.08 15.48L204.50 15.48L204.50 13.60L212.02 13.60L212.02 15.48L209.45 15.48L209.45 22L207.08 22L207.08 15.48Z" fill="#F6EAE0" x="124.56"/></svg>