<svg xmlns="http://www.w3.org/2000/svg" width="290.53999999999996" height="35" viewBox="0 0 290.53999999999996 35"><rect class="svg__rect" x="0" y="0" width="201.35" height="35" fill="#CE422B"/><rect class="svg__rect" x="199.35" y="0" width="91.18999999999997" height="35" fill="#1E2020"/><path class="svg__text" d="M15.70 22L14.22 22L14.22 13.47L17.22 13.47Q18.69 13.47 19.50 14.13Q20.30 14.79 20.30 16.05L20.30 16.05Q20.30 16.90 19.89 17.48Q19.47 18.06 18.73 18.37L18.73 18.37L20.65 21.92L20.65 22L19.06 22L17.35 18.71L15.70 18.71L15.70 22ZM15.70 14.66L15.70 17.52L17.22 17.52Q17.97 17.52 18.39 17.15Q18.82 16.77 18.82 16.11L18.82 16.11Q18.82 15.43 18.43 15.05Q18.04 14.68 17.26 14.66L17.26 14.66L15.70 14.66ZM24.56 19.16L24.56 19.16L24.56 13.47L26.04 13.47L26.04 19.18Q26.04 20.03 26.47 20.48Q26.90 20.93 27.75 20.93L27.75 20.93Q29.46 20.93 29.46 19.13L29.46 19.13L29.46 13.47L30.93 13.47L30.93 19.17Q30.93 20.53 30.06 21.32Q29.19 22.12 27.75 22.12L27.75 22.12Q26.28 22.12 25.42 21.33Q24.56 20.55 24.56 19.16ZM35.07 19.42L35.07 19.42L36.55 19.42Q36.55 20.15 37.03 20.55Q37.51 20.95 38.41 20.95L38.41 20.95Q39.18 20.95 39.57 20.63Q39.96 20.32 39.96 19.80L39.96 19.80Q39.96 19.24 39.57 18.94Q39.17 18.63 38.14 18.32Q37.11 18.01 36.50 17.63L36.50 17.63Q35.33 16.90 35.33 15.72L35.33 15.72Q35.33 14.69 36.18 14.02Q37.02 13.35 38.36 13.35L38.36 13.35Q39.25 13.35 39.95 13.68Q40.64 14.01 41.04 14.61Q41.44 15.22 41.44 15.96L41.44 15.96L39.96 15.96Q39.96 15.29 39.54 14.91Q39.13 14.54 38.35 14.54L38.35 14.54Q37.62 14.54 37.22 14.85Q36.82 15.16 36.82 15.71L36.82 15.71Q36.82 16.18 37.25 16.50Q37.68 16.81 38.68 17.10Q39.68 17.40 40.28 17.78Q40.88 18.16 41.16 18.65Q41.45 19.13 41.45 19.79L41.45 19.79Q41.45 20.86 40.63 21.49Q39.81 22.12 38.41 22.12L38.41 22.12Q37.48 22.12 36.71 21.77Q35.93 21.43 35.50 20.83Q35.07 20.22 35.07 19.42ZM47.42 14.66L44.78 14.66L44.78 13.47L51.55 13.47L51.55 14.66L48.89 14.66L48.89 22L47.42 22L47.42 14.66ZM61.01 18.19L61.01 18.19L61.01 17.39Q61.01 16.19 61.44 15.27Q61.87 14.35 62.67 13.85Q63.47 13.35 64.51 13.35L64.51 13.35Q65.93 13.35 66.79 14.12Q67.65 14.89 67.79 16.29L67.79 16.29L66.31 16.29Q66.21 15.37 65.78 14.96Q65.35 14.55 64.51 14.55L64.51 14.55Q63.55 14.55 63.03 15.26Q62.51 15.96 62.50 17.33L62.50 17.33L62.50 18.09Q62.50 19.47 62.99 20.20Q63.49 20.92 64.44 20.92L64.44 20.92Q65.32 20.92 65.76 20.53Q66.20 20.14 66.31 19.22L66.31 19.22L67.79 19.22Q67.66 20.59 66.78 21.35Q65.90 22.12 64.44 22.12L64.44 22.12Q63.42 22.12 62.65 21.63Q61.87 21.15 61.45 20.26Q61.03 19.37 61.01 18.19ZM71.83 18.00L71.83 18.00L71.83 17.52Q71.83 16.28 72.27 15.32Q72.72 14.37 73.52 13.86Q74.33 13.35 75.37 13.35Q76.41 13.35 77.22 13.85Q78.03 14.35 78.47 15.29Q78.90 16.23 78.91 17.48L78.91 17.48L78.91 17.96Q78.91 19.21 78.48 20.16Q78.04 21.10 77.24 21.61Q76.43 22.12 75.38 22.12L75.38 22.12Q74.35 22.12 73.53 21.61Q72.72 21.10 72.28 20.17Q71.84 19.23 71.83 18.00ZM73.31 17.46L73.31 17.96Q73.31 19.36 73.86 20.13Q74.41 20.90 75.38 20.90L75.38 20.90Q76.37 20.90 76.90 20.15Q77.43 19.40 77.43 17.96L77.43 17.96L77.43 17.51Q77.43 16.09 76.89 15.34Q76.36 14.58 75.37 14.58L75.37 14.58Q74.41 14.58 73.87 15.33Q73.33 16.09 73.31 17.46L73.31 17.46ZM85.83 22L83.38 22L83.38 13.47L85.89 13.47Q87.03 13.47 87.90 13.97Q88.78 14.48 89.26 15.40Q89.74 16.33 89.74 17.52L89.74 17.52L89.74 17.95Q89.74 19.16 89.26 20.08Q88.77 21.00 87.88 21.50Q86.98 22 85.83 22L85.83 22ZM84.86 14.66L84.86 20.82L85.82 20.82Q86.99 20.82 87.61 20.09Q88.24 19.36 88.25 17.99L88.25 17.99L88.25 17.52Q88.25 16.13 87.65 15.40Q87.04 14.66 85.89 14.66L85.89 14.66L84.86 14.66ZM99.78 22L94.20 22L94.20 13.47L99.74 13.47L99.74 14.66L95.69 14.66L95.69 17.02L99.19 17.02L99.19 18.19L95.69 18.19L95.69 20.82L99.78 20.82L99.78 22ZM111.44 22L109.95 22L109.95 13.47L112.95 13.47Q114.43 13.47 115.23 14.13Q116.04 14.79 116.04 16.05L116.04 16.05Q116.04 16.90 115.62 17.48Q115.21 18.06 114.47 18.37L114.47 18.37L116.39 21.92L116.39 22L114.80 22L113.09 18.71L111.44 18.71L111.44 22ZM111.44 14.66L111.44 17.52L112.96 17.52Q113.71 17.52 114.13 17.15Q114.55 16.77 114.55 16.11L114.55 16.11Q114.55 15.43 114.16 15.05Q113.77 14.68 113.00 14.66L113.00 14.66L111.44 14.66ZM121.21 22L119.67 22L122.89 13.47L124.22 13.47L127.45 22L125.90 22L125.21 20.01L121.90 20.01L121.21 22ZM123.55 15.28L122.32 18.82L124.79 18.82L123.55 15.28ZM132.97 22L131.49 22L131.49 13.47L132.97 13.47L132.97 22ZM140.23 22L137.78 22L137.78 13.47L140.30 13.47Q141.43 13.47 142.31 13.97Q143.18 14.48 143.66 15.40Q144.14 16.33 144.14 17.52L144.14 17.52L144.14 17.95Q144.14 19.16 143.66 20.08Q143.18 21.00 142.28 21.50Q141.39 22 140.23 22L140.23 22ZM139.26 14.66L139.26 20.82L140.23 20.82Q141.39 20.82 142.02 20.09Q142.64 19.36 142.65 17.99L142.65 17.99L142.65 17.52Q142.65 16.13 142.05 15.40Q141.45 14.66 140.30 14.66L140.30 14.66L139.26 14.66ZM157.70 22L154.58 22L154.58 13.47L157.51 13.47Q158.96 13.47 159.71 14.05Q160.47 14.63 160.47 15.78L160.47 15.78Q160.47 16.36 160.15 16.83Q159.83 17.30 159.22 17.56L159.22 17.56Q159.92 17.75 160.29 18.26Q160.67 18.78 160.67 19.51L160.67 19.51Q160.67 20.71 159.90 21.36Q159.13 22 157.70 22L157.70 22ZM156.07 18.15L156.07 20.82L157.71 20.82Q158.41 20.82 158.80 20.47Q159.20 20.13 159.20 19.51L159.20 19.51Q159.20 18.18 157.84 18.15L157.84 18.15L156.07 18.15ZM156.07 14.66L156.07 17.06L157.52 17.06Q158.21 17.06 158.60 16.75Q158.99 16.43 158.99 15.86L158.99 15.86Q158.99 15.23 158.63 14.95Q158.27 14.66 157.51 14.66L157.51 14.66L156.07 14.66ZM164.87 18.00L164.87 18.00L164.87 17.52Q164.87 16.28 165.32 15.32Q165.76 14.37 166.56 13.86Q167.37 13.35 168.41 13.35Q169.46 13.35 170.26 13.85Q171.07 14.35 171.51 15.29Q171.95 16.23 171.95 17.48L171.95 17.48L171.95 17.96Q171.95 19.21 171.52 20.16Q171.08 21.10 170.28 21.61Q169.47 22.12 168.42 22.12L168.42 22.12Q167.39 22.12 166.58 21.61Q165.76 21.10 165.32 20.17Q164.88 19.23 164.87 18.00ZM166.36 17.46L166.36 17.96Q166.36 19.36 166.90 20.13Q167.45 20.90 168.42 20.90L168.42 20.90Q169.41 20.90 169.94 20.15Q170.47 19.40 170.47 17.96L170.47 17.96L170.47 17.51Q170.47 16.09 169.93 15.34Q169.40 14.58 168.41 14.58L168.41 14.58Q167.45 14.58 166.91 15.33Q166.37 16.09 166.36 17.46L166.36 17.46ZM178.10 14.66L175.46 14.66L175.46 13.47L182.23 13.47L182.23 14.66L179.57 14.66L179.57 22L178.10 22L178.10 14.66ZM186.13 21.85Q185.91 21.63 185.91 21.29Q185.91 20.95 186.13 20.73Q186.34 20.50 186.73 20.50L186.73 20.50Q187.13 20.50 187.35 20.73Q187.57 20.95 187.57 21.29L187.57 21.29Q187.57 21.63 187.35 21.84Q187.13 22.06 186.73 22.06L186.73 22.06Q186.35 22.06 186.13 21.85Z" fill="#1E2020"/><path class="svg__text" d="M214.33 15.44L212.77 15.44L212.77 13.60L216.71 13.60L216.71 22L214.33 22L214.33 15.44ZM221.37 20.75L221.37 20.75Q221.37 20.15 221.76 19.78Q222.15 19.41 222.74 19.41L222.74 19.41Q223.33 19.41 223.72 19.78Q224.10 20.15 224.10 20.75L224.10 20.75Q224.10 21.34 223.71 21.72Q223.32 22.11 222.74 22.11L222.74 22.11Q222.16 22.11 221.76 21.72Q221.37 21.34 221.37 20.75ZM228.33 17.80L228.33 17.80Q228.33 16.45 228.80 15.46Q229.28 14.46 230.12 13.95Q230.96 13.43 232.04 13.43L232.04 13.43Q233.10 13.43 233.94 13.95Q234.78 14.46 235.26 15.46Q235.73 16.45 235.73 17.80L235.73 17.80Q235.73 19.15 235.26 20.15Q234.78 21.14 233.95 21.65Q233.11 22.17 232.04 22.17L232.04 22.17Q230.96 22.17 230.12 21.65Q229.28 21.14 228.80 20.15Q228.33 19.16 228.33 17.80ZM230.72 17.80L230.72 17.80Q230.72 19.06 231.07 19.64Q231.43 20.22 232.04 20.22L232.04 20.22Q232.64 20.22 232.99 19.64Q233.35 19.06 233.35 17.80L233.35 17.80Q233.35 16.54 232.99 15.96Q232.64 15.38 232.04 15.38L232.04 15.38Q231.43 15.38 231.07 15.96Q230.72 16.54 230.72 17.80ZM239.95 20.75L239.95 20.75Q239.95 20.15 240.34 19.78Q240.73 19.41 241.32 19.41L241.32 19.41Q241.91 19.41 242.30 19.78Q242.68 20.15 242.68 20.75L242.68 20.75Q242.68 21.34 242.29 21.72Q241.90 22.11 241.32 22.11L241.32 22.11Q240.74 22.11 240.34 21.72Q239.95 21.34 239.95 20.75ZM254.08 22L247.34 22L247.34 13.60L253.93 13.60L253.93 15.44L249.70 15.44L249.70 16.85L253.43 16.85L253.43 18.63L249.70 18.63L249.70 20.17L254.08 20.17L254.08 22ZM260.74 22L258.03 22L261.09 17.75L258.16 13.60L260.83 13.60L262.52 16.02L264.17 13.60L266.74 13.60L263.81 17.66L266.93 22L264.20 22L262.46 19.40L260.74 22ZM277.96 22L271.22 22L271.22 13.60L277.81 13.60L277.81 15.44L273.57 15.44L273.57 16.85L277.31 16.85L277.31 18.63L273.57 18.63L273.57 20.17L277.96 20.17L277.96 22Z" fill="#F6EAE0" x="212.35"/></svg>