<svg xmlns="http://www.w3.org/2000/svg" width="380.31" height="35" viewBox="0 0 380.31 35"><rect class="svg__rect" x="0" y="0" width="196.01" height="35" fill="#CE422B"/><rect class="svg__rect" x="194.01" y="0" width="186.3" height="35" fill="#1E2020"/><path class="svg__text" d="M15.70 22L14.22 22L14.22 13.47L17.22 13.47Q18.69 13.47 19.50 14.13Q20.30 14.79 20.30 16.05L20.30 16.05Q20.30 16.90 19.89 17.48Q19.47 18.06 18.73 18.37L18.73 18.37L20.65 21.92L20.65 22L19.06 22L17.35 18.71L15.70 18.71L15.70 22ZM15.70 14.66L15.70 17.52L17.22 17.52Q17.97 17.52 18.39 17.15Q18.82 16.77 18.82 16.11L18.82 16.11Q18.82 15.43 18.43 15.05Q18.04 14.68 17.26 14.66L17.26 14.66L15.70 14.66ZM24.56 19.16L24.56 19.16L24.56 13.47L26.04 13.47L26.04 19.18Q26.04 20.03 26.47 20.48Q26.90 20.93 27.75 20.93L27.75 20.93Q29.46 20.93 29.46 19.13L29.46 19.13L29.46 13.47L30.93 13.47L30.93 19.17Q30.93 20.53 30.06 21.32Q29.19 22.12 27.75 22.12L27.75 22.12Q26.28 22.12 25.42 21.33Q24.56 20.55 24.56 19.16ZM35.07 19.42L35.07 19.42L36.55 19.42Q36.55 20.15 37.03 20.55Q37.51 20.95 38.41 20.95L38.41 20.95Q39.18 20.95 39.57 20.63Q39.96 20.32 39.96 19.80L39.96 19.80Q39.96 19.24 39.57 18.94Q39.17 18.63 38.14 18.32Q37.11 18.01 36.50 17.63L36.50 17.63Q35.33 16.90 35.33 15.72L35.33 15.72Q35.33 14.69 36.18 14.02Q37.02 13.35 38.36 13.35L38.36 13.35Q39.25 13.35 39.95 13.68Q40.64 14.01 41.04 14.61Q41.44 15.22 41.44 15.96L41.44 15.96L39.96 15.96Q39.96 15.29 39.54 14.91Q39.13 14.54 38.35 14.54L38.35 14.54Q37.62 14.54 37.22 14.85Q36.82 15.16 36.82 15.71L36.82 15.71Q36.82 16.18 37.25 16.50Q37.68 16.81 38.68 17.10Q39.68 17.40 40.28 17.78Q40.88 18.16 41.16 18.65Q41.45 19.13 41.45 19.79L41.45 19.79Q41.45 20.86 40.63 21.49Q39.81 22.12 38.41 22.12L38.41 22.12Q37.48 22.12 36.71 21.77Q35.93 21.43 35.50 20.83Q35.07 20.22 35.07 19.42ZM47.42 14.66L44.78 14.66L44.78 13.47L51.55 13.47L51.55 14.66L48.89 14.66L48.89 22L47.42 22L47.42 14.66ZM61.01 18.19L61.01 18.19L61.01 17.39Q61.01 16.19 61.44 15.27Q61.87 14.35 62.67 13.85Q63.47 13.35 64.51 13.35L64.51 13.35Q65.93 13.35 66.79 14.12Q67.65 14.89 67.79 16.29L67.79 16.29L66.31 16.29Q66.21 15.37 65.78 14.96Q65.35 14.55 64.51 14.55L64.51 14.55Q63.55 14.55 63.03 15.26Q62.51 15.96 62.50 17.33L62.50 17.33L62.50 18.09Q62.50 19.47 62.99 20.20Q63.49 20.92 64.44 20.92L64.44 20.92Q65.32 20.92 65.76 20.53Q66.20 20.14 66.31 19.22L66.31 19.22L67.79 19.22Q67.66 20.59 66.78 21.35Q65.90 22.12 64.44 22.12L64.44 22.12Q63.42 22.12 62.65 21.63Q61.87 21.15 61.45 20.26Q61.03 19.37 61.01 18.19ZM71.83 18.00L71.83 18.00L71.83 17.52Q71.83 16.28 72.27 15.32Q72.72 14.37 73.52 13.86Q74.33 13.35 75.37 13.35Q76.41 13.35 77.22 13.85Q78.03 14.35 78.47 15.29Q78.90 16.23 78.91 17.48L78.91 17.48L78.91 17.96Q78.91 19.21 78.48 20.16Q78.04 21.10 77.24 21.61Q76.43 22.12 75.38 22.12L75.38 22.12Q74.35 22.12 73.53 21.61Q72.72 21.10 72.28 20.17Q71.84 19.23 71.83 18.00ZM73.31 17.46L73.31 17.96Q73.31 19.36 73.86 20.13Q74.41 20.90 75.38 20.90L75.38 20.90Q76.37 20.90 76.90 20.15Q77.43 19.40 77.43 17.96L77.43 17.96L77.43 17.51Q77.43 16.09 76.89 15.34Q76.36 14.58 75.37 14.58L75.37 14.58Q74.41 14.58 73.87 15.33Q73.33 16.09 73.31 17.46L73.31 17.46ZM85.83 22L83.38 22L83.38 13.47L85.89 13.47Q87.03 13.47 87.90 13.97Q88.78 14.48 89.26 15.40Q89.74 16.33 89.74 17.52L89.74 17.52L89.74 17.95Q89.74 19.16 89.26 20.08Q88.77 21.00 87.88 21.50Q86.98 22 85.83 22L85.83 22ZM84.86 14.66L84.86 20.82L85.82 20.82Q86.99 20.82 87.61 20.09Q88.24 19.36 88.25 17.99L88.25 17.99L88.25 17.52Q88.25 16.13 87.65 15.40Q87.04 14.66 85.89 14.66L85.89 14.66L84.86 14.66ZM99.78 22L94.20 22L94.20 13.47L99.74 13.47L99.74 14.66L95.69 14.66L95.69 17.02L99.19 17.02L99.19 18.19L95.69 18.19L95.69 20.82L99.78 20.82L99.78 22ZM111.44 22L109.95 22L109.95 13.47L112.95 13.47Q114.43 13.47 115.23 14.13Q116.04 14.79 116.04 16.05L116.04 16.05Q116.04 16.90 115.62 17.48Q115.21 18.06 114.47 18.37L114.47 18.37L116.39 21.92L116.39 22L114.80 22L113.09 18.71L111.44 18.71L111.44 22ZM111.44 14.66L111.44 17.52L112.96 17.52Q113.71 17.52 114.13 17.15Q114.55 16.77 114.55 16.11L114.55 16.11Q114.55 15.43 114.16 15.05Q113.77 14.68 113.00 14.66L113.00 14.66L111.44 14.66ZM121.21 22L119.67 22L122.89 13.47L124.22 13.47L127.45 22L125.90 22L125.21 20.01L121.90 20.01L121.21 22ZM123.55 15.28L122.32 18.82L124.79 18.82L123.55 15.28ZM132.97 22L131.49 22L131.49 13.47L132.97 13.47L132.97 22ZM140.23 22L137.78 22L137.78 13.47L140.30 13.47Q141.43 13.47 142.31 13.97Q143.18 14.48 143.66 15.40Q144.14 16.33 144.14 17.52L144.14 17.52L144.14 17.95Q144.14 19.16 143.66 20.08Q143.18 21.00 142.28 21.50Q141.39 22 140.23 22L140.23 22ZM139.26 14.66L139.26 20.82L140.23 20.82Q141.39 20.82 142.02 20.09Q142.64 19.36 142.65 17.99L142.65 17.99L142.65 17.52Q142.65 16.13 142.05 15.40Q141.45 14.66 140.30 14.66L140.30 14.66L139.26 14.66ZM157.70 22L154.58 22L154.58 13.47L157.51 13.47Q158.96 13.47 159.71 14.05Q160.47 14.63 160.47 15.78L160.47 15.78Q160.47 16.36 160.15 16.83Q159.83 17.30 159.22 17.56L159.22 17.56Q159.92 17.75 160.29 18.26Q160.67 18.78 160.67 19.51L160.67 19.51Q160.67 20.71 159.90 21.36Q159.13 22 157.70 22L157.70 22ZM156.07 18.15L156.07 20.82L157.71 20.82Q158.41 20.82 158.80 20.47Q159.20 20.13 159.20 19.51L159.20 19.51Q159.20 18.18 157.84 18.15L157.84 18.15L156.07 18.15ZM156.07 14.66L156.07 17.06L157.52 17.06Q158.21 17.06 158.60 16.75Q158.99 16.43 158.99 15.86L158.99 15.86Q158.99 15.23 158.63 14.95Q158.27 14.66 157.51 14.66L157.51 14.66L156.07 14.66ZM164.87 18.00L164.87 18.00L164.87 17.52Q164.87 16.28 165.32 15.32Q165.76 14.37 166.56 13.86Q167.37 13.35 168.41 13.35Q169.46 13.35 170.26 13.85Q171.07 14.35 171.51 15.29Q171.95 16.23 171.95 17.48L171.95 17.48L171.95 17.96Q171.95 19.21 171.52 20.16Q171.08 21.10 170.28 21.61Q169.47 22.12 168.42 22.12L168.42 22.12Q167.39 22.12 166.58 21.61Q165.76 21.10 165.32 20.17Q164.88 19.23 164.87 18.00ZM166.36 17.46L166.36 17.96Q166.36 19.36 166.90 20.13Q167.45 20.90 168.42 20.90L168.42 20.90Q169.41 20.90 169.94 20.15Q170.47 19.40 170.47 17.96L170.47 17.96L170.47 17.51Q170.47 16.09 169.93 15.34Q169.40 14.58 168.41 14.58L168.41 14.58Q167.45 14.58 166.91 15.33Q166.37 16.09 166.36 17.46L166.36 17.46ZM178.10 14.66L175.46 14.66L175.46 13.47L182.23 13.47L182.23 14.66L179.57 14.66L179.57 22L178.10 22L178.10 14.66Z" fill="#1E2020"/><path class="svg__text" d="M211.44 19.46L207.93 19.46L207.93 17.71L211.44 17.71L211.44 19.46ZM215.75 21.24L215.75 21.24L216.53 19.49Q217.09 19.86 217.84 20.09Q218.58 20.32 219.30 20.32L219.30 20.32Q220.67 20.32 220.67 19.64L220.67 19.64Q220.67 19.28 220.28 19.11Q219.89 18.93 219.03 18.74L219.03 18.74Q218.08 18.53 217.44 18.30Q216.81 18.06 216.35 17.55Q215.90 17.03 215.90 16.16L215.90 16.16Q215.90 15.39 216.32 14.77Q216.73 14.15 217.57 13.79Q218.40 13.43 219.61 13.43L219.61 13.43Q220.44 13.43 221.24 13.62Q222.05 13.80 222.66 14.17L222.66 14.17L221.93 15.93Q220.73 15.28 219.60 15.28L219.60 15.28Q218.89 15.28 218.57 15.49Q218.25 15.70 218.25 16.04L218.25 16.04Q218.25 16.37 218.63 16.54Q219.01 16.71 219.86 16.89L219.86 16.89Q220.82 17.10 221.45 17.33Q222.08 17.56 222.55 18.07Q223.01 18.58 223.01 19.46L223.01 19.46Q223.01 20.21 222.59 20.83Q222.17 21.44 221.33 21.80Q220.49 22.17 219.29 22.17L219.29 22.17Q218.27 22.17 217.31 21.92Q216.35 21.67 215.75 21.24ZM227.16 17.80L227.16 17.80Q227.16 16.55 227.76 15.55Q228.37 14.56 229.43 14.00Q230.49 13.43 231.82 13.43L231.82 13.43Q233.15 13.43 234.22 14.00Q235.28 14.56 235.89 15.55Q236.49 16.55 236.49 17.80L236.49 17.80Q236.49 19.05 235.89 20.04Q235.28 21.04 234.22 21.60Q233.16 22.17 231.82 22.17L231.82 22.17Q230.49 22.17 229.43 21.60Q228.37 21.04 227.76 20.04Q227.16 19.05 227.16 17.80ZM229.56 17.80L229.56 17.80Q229.56 18.51 229.86 19.05Q230.16 19.60 230.67 19.90Q231.19 20.20 231.82 20.20L231.82 20.20Q232.46 20.20 232.98 19.90Q233.49 19.60 233.79 19.05Q234.09 18.51 234.09 17.80L234.09 17.80Q234.09 17.09 233.79 16.54Q233.49 16 232.98 15.70Q232.46 15.40 231.82 15.40L231.82 15.40Q231.18 15.40 230.67 15.70Q230.16 16 229.86 16.54Q229.56 17.09 229.56 17.80ZM241.15 18.26L241.15 18.26L241.15 13.60L243.53 13.60L243.53 18.19Q243.53 20.20 245.12 20.20L245.12 20.20Q246.71 20.20 246.71 18.19L246.71 18.19L246.71 13.60L249.05 13.60L249.05 18.26Q249.05 20.13 248.01 21.15Q246.97 22.17 245.10 22.17L245.10 22.17Q243.23 22.17 242.19 21.15Q241.15 20.13 241.15 18.26ZM256.51 22L254.14 22L254.14 13.60L257.98 13.60Q259.12 13.60 259.96 13.98Q260.80 14.35 261.25 15.06Q261.71 15.76 261.71 16.71L261.71 16.71Q261.71 17.62 261.28 18.30Q260.86 18.98 260.07 19.36L260.07 19.36L261.88 22L259.33 22L257.81 19.77L256.51 19.77L256.51 22ZM256.51 15.47L256.51 17.93L257.83 17.93Q258.57 17.93 258.94 17.61Q259.31 17.29 259.31 16.71L259.31 16.71Q259.31 16.12 258.94 15.79Q258.57 15.47 257.83 15.47L257.83 15.47L256.51 15.47ZM266.07 17.80L266.07 17.80Q266.07 16.54 266.67 15.54Q267.27 14.55 268.32 13.99Q269.37 13.43 270.69 13.43L270.69 13.43Q271.84 13.43 272.77 13.84Q273.69 14.25 274.30 15.02L274.30 15.02L272.79 16.39Q271.98 15.40 270.81 15.40L270.81 15.40Q270.13 15.40 269.59 15.70Q269.06 16 268.76 16.54Q268.47 17.09 268.47 17.80L268.47 17.80Q268.47 18.51 268.76 19.05Q269.06 19.60 269.59 19.90Q270.13 20.20 270.81 20.20L270.81 20.20Q271.98 20.20 272.79 19.22L272.79 19.22L274.30 20.58Q273.69 21.35 272.77 21.76Q271.84 22.17 270.69 22.17L270.69 22.17Q269.37 22.17 268.32 21.61Q267.27 21.05 266.67 20.05Q266.07 19.06 266.07 17.80ZM285.58 22L278.84 22L278.84 13.60L285.43 13.60L285.43 15.44L281.19 15.44L281.19 16.85L284.93 16.85L284.93 18.63L281.19 18.63L281.19 20.17L285.58 20.17L285.58 22ZM289.96 17.80L289.96 17.80Q289.96 16.54 290.56 15.54Q291.15 14.55 292.21 13.99Q293.26 13.43 294.58 13.43L294.58 13.43Q295.73 13.43 296.65 13.84Q297.58 14.25 298.19 15.02L298.19 15.02L296.68 16.39Q295.87 15.40 294.70 15.40L294.70 15.40Q294.01 15.40 293.48 15.70Q292.95 16 292.65 16.54Q292.36 17.09 292.36 17.80L292.36 17.80Q292.36 18.51 292.65 19.05Q292.95 19.60 293.48 19.90Q294.01 20.20 294.70 20.20L294.70 20.20Q295.87 20.20 296.68 19.22L296.68 19.22L298.19 20.58Q297.58 21.35 296.66 21.76Q295.73 22.17 294.58 22.17L294.58 22.17Q293.26 22.17 292.21 21.61Q291.15 21.05 290.56 20.05Q289.96 19.06 289.96 17.80ZM302.30 17.80L302.30 17.80Q302.30 16.55 302.90 15.55Q303.51 14.56 304.57 14.00Q305.63 13.43 306.96 13.43L306.96 13.43Q308.29 13.43 309.36 14.00Q310.42 14.56 311.03 15.55Q311.63 16.55 311.63 17.80L311.63 17.80Q311.63 19.05 311.03 20.04Q310.42 21.04 309.36 21.60Q308.30 22.17 306.96 22.17L306.96 22.17Q305.63 22.17 304.57 21.60Q303.51 21.04 302.90 20.04Q302.30 19.05 302.30 17.80ZM304.70 17.80L304.70 17.80Q304.70 18.51 305.00 19.05Q305.30 19.60 305.82 19.90Q306.33 20.20 306.96 20.20L306.96 20.20Q307.60 20.20 308.12 19.90Q308.63 19.60 308.93 19.05Q309.23 18.51 309.23 17.80L309.23 17.80Q309.23 17.09 308.93 16.54Q308.63 16 308.12 15.70Q307.60 15.40 306.96 15.40L306.96 15.40Q306.32 15.40 305.81 15.70Q305.30 16 305.00 16.54Q304.70 17.09 304.70 17.80ZM320.33 22L316.36 22L316.36 13.60L320.33 13.60Q321.72 13.60 322.78 14.12Q323.85 14.63 324.44 15.58Q325.03 16.53 325.03 17.80L325.03 17.80Q325.03 19.07 324.44 20.02Q323.85 20.97 322.78 21.48Q321.72 22 320.33 22L320.33 22ZM318.74 15.50L318.74 20.10L320.24 20.10Q321.32 20.10 321.97 19.49Q322.63 18.88 322.63 17.80L322.63 17.80Q322.63 16.72 321.97 16.11Q321.32 15.50 320.24 15.50L320.24 15.50L318.74 15.50ZM336.50 22L329.76 22L329.76 13.60L336.35 13.60L336.35 15.44L332.11 15.44L332.11 16.85L335.84 16.85L335.84 18.63L332.11 18.63L332.11 20.17L336.50 20.17L336.50 22ZM340.79 20.75L340.79 20.75Q340.79 20.15 341.18 19.78Q341.57 19.41 342.16 19.41L342.16 19.41Q342.76 19.41 343.14 19.78Q343.53 20.15 343.53 20.75L343.53 20.75Q343.53 21.34 343.14 21.72Q342.75 22.11 342.16 22.11L342.16 22.11Q341.58 22.11 341.19 21.72Q340.79 21.34 340.79 20.75ZM350.56 22L348.18 22L348.18 13.60L352.03 13.60Q353.16 13.60 354.01 13.98Q354.85 14.35 355.30 15.06Q355.76 15.76 355.76 16.71L355.76 16.71Q355.76 17.66 355.30 18.35Q354.85 19.05 354.01 19.42Q353.16 19.80 352.03 19.80L352.03 19.80L350.56 19.80L350.56 22ZM350.56 15.47L350.56 17.93L351.88 17.93Q352.61 17.93 352.99 17.61Q353.36 17.29 353.36 16.71L353.36 16.71Q353.36 16.12 352.99 15.80Q352.61 15.47 351.88 15.47L351.88 15.47L350.56 15.47ZM362.64 18.95L359.43 13.60L361.94 13.60L363.93 16.94L365.93 13.60L368.23 13.60L365.01 18.99L365.01 22L362.64 22L362.64 18.95Z" fill="#F6EAE0" x="207.01"/></svg>